# xmcd CD database file
#
# Track frame offsets:
#	150
#	28715
#	45470
#	72722
#	117135
#	147327
#	181737
#	220325
#	242435
#	251695
#	297562
#
# Disc length: 4444 seconds
#
# Revision: 0
# Processed by: cddbd v1.5PL3 Copyright (c) Steve Scherf et al.
# Submitted via: CDex 1.51
#
DISCID=a7115a0b
DTITLE=Calm - Ancient Future
DYEAR=2003
DGENRE=Club
TTITLE0=Under The Amidnight Sun
TTITLE1=Still Dreaming
TTITLE2=Space Debres
TTITLE3=Light Years (Long Than Our Mind)
TTITLE4=Pharoah (the Sun)
TTITLE5=Dreams of Skelton Tree
TTITLE6=Utopia and Visions
TTITLE7=The Teaching of Nature
TTITLE8=2 Minutes for the Realities
TTITLE9=Peace
TTITLE10=帰るべき場所 (The Wneel Of Time)
EXTD=YEAR: 2003
EXTT0=
EXTT1=
EXTT2=
EXTT3=
EXTT4=
EXTT5=
EXTT6=
EXTT7=
EXTT8=
EXTT9=
EXTT10=
PLAYORDER=
